<svg width="22" height="22" viewBox="0 0 22 22" fill="none" xmlns="http://www.w3.org/2000/svg">
<path fill-rule="evenodd" clip-rule="evenodd" d="M11 1.75C5.89137 1.75 1.75 5.89137 1.75 11C1.75 16.1086 5.89137 20.25 11 20.25C16.1086 20.25 20.25 16.1086 20.25 11C20.25 5.89137 16.1086 1.75 11 1.75ZM0.25 11C0.25 5.06294 5.06294 0.25 11 0.25C16.9371 0.25 21.75 5.06294 21.75 11C21.75 16.9371 16.9371 21.75 11 21.75C5.06294 21.75 0.25 16.9371 0.25 11Z" fill="#828282"/>
<path fill-rule="evenodd" clip-rule="evenodd" d="M10.9082 6.75C10.419 6.75 9.96912 6.95485 9.63283 7.30201C9.44883 7.49195 9.30025 7.72353 9.20147 7.98401C9.05459 8.37131 8.62155 8.5662 8.23425 8.41932C7.84696 8.27244 7.65206 7.83941 7.79894 7.45211C7.96987 7.0014 8.22883 6.59552 8.55543 6.25836C9.15414 5.64029 9.98484 5.25 10.9082 5.25C12.7903 5.25 14.2502 6.84564 14.2502 8.73065C14.2502 10.3594 13.1668 11.7632 11.6582 12.1232V13C11.6582 13.4142 11.3224 13.75 10.9082 13.75C10.494 13.75 10.1582 13.4142 10.1582 13V11.9613C10.1582 11.2422 10.7276 10.7842 11.2547 10.6764C12.0804 10.5076 12.7502 9.72333 12.7502 8.73065C12.7502 7.59947 11.8892 6.75 10.9082 6.75Z" fill="#828282"/>
<path d="M11 17.25C11.5523 17.25 12 16.8023 12 16.25C12 15.6977 11.5523 15.25 11 15.25C10.4477 15.25 10 15.6977 10 16.25C10 16.8023 10.4477 17.25 11 17.25Z" fill="#828282"/>
</svg>
