<svg width="263" height="1025" viewBox="0 0 263 1025" fill="none" xmlns="http://www.w3.org/2000/svg">
<rect width="263" height="1025" fill="#F3F3F3"/>
<path d="M62 144.52V139.98C62 138.57 61.36 138 59.77 138H55.73C54.14 138 53.5 138.57 53.5 139.98V144.51C53.5 145.93 54.14 146.49 55.73 146.49H59.77C61.36 146.5 62 145.93 62 144.52Z" fill="#6154F0"/>
<path d="M62 155.77V151.73C62 150.14 61.36 149.5 59.77 149.5H55.73C54.14 149.5 53.5 150.14 53.5 151.73V155.77C53.5 157.36 54.14 158 55.73 158H59.77C61.36 158 62 157.36 62 155.77Z" fill="#6154F0"/>
<path d="M50.5 144.52V139.98C50.5 138.57 49.86 138 48.27 138H44.23C42.64 138 42 138.57 42 139.98V144.51C42 145.93 42.64 146.49 44.23 146.49H48.27C49.86 146.5 50.5 145.93 50.5 144.52Z" fill="#6154F0"/>
<path d="M50.5 155.77V151.73C50.5 150.14 49.86 149.5 48.27 149.5H44.23C42.64 149.5 42 150.14 42 151.73V155.77C42 157.36 42.64 158 44.23 158H48.27C49.86 158 50.5 157.36 50.5 155.77Z" fill="#6154F0"/>
<path d="M89.502 152.598C88.5873 152.598 87.7473 152.383 86.982 151.954C86.2167 151.525 85.61 150.932 85.162 150.176C84.714 149.411 84.49 148.547 84.49 147.586C84.49 146.634 84.714 145.78 85.162 145.024C85.61 144.259 86.2167 143.661 86.982 143.232C87.7473 142.803 88.5873 142.588 89.502 142.588C90.426 142.588 91.266 142.803 92.022 143.232C92.7873 143.661 93.3893 144.259 93.828 145.024C94.276 145.78 94.5 146.634 94.5 147.586C94.5 148.547 94.276 149.411 93.828 150.176C93.3893 150.932 92.7873 151.525 92.022 151.954C91.2567 152.383 90.4167 152.598 89.502 152.598ZM89.502 150.848C90.09 150.848 90.608 150.717 91.056 150.456C91.504 150.185 91.854 149.803 92.106 149.308C92.358 148.813 92.484 148.239 92.484 147.586C92.484 146.933 92.358 146.363 92.106 145.878C91.854 145.383 91.504 145.005 91.056 144.744C90.608 144.483 90.09 144.352 89.502 144.352C88.914 144.352 88.3913 144.483 87.934 144.744C87.486 145.005 87.136 145.383 86.884 145.878C86.632 146.363 86.506 146.933 86.506 147.586C86.506 148.239 86.632 148.813 86.884 149.308C87.136 149.803 87.486 150.185 87.934 150.456C88.3913 150.717 88.914 150.848 89.502 150.848ZM99.1922 150.694L101.152 144.744H103.238L100.368 152.5H97.9882L95.1322 144.744H97.2322L99.1922 150.694ZM111.549 148.454C111.549 148.734 111.53 148.986 111.493 149.21H105.823C105.87 149.77 106.066 150.209 106.411 150.526C106.756 150.843 107.181 151.002 107.685 151.002C108.413 151.002 108.931 150.689 109.239 150.064H111.353C111.129 150.811 110.7 151.427 110.065 151.912C109.43 152.388 108.651 152.626 107.727 152.626C106.98 152.626 106.308 152.463 105.711 152.136C105.123 151.8 104.661 151.329 104.325 150.722C103.998 150.115 103.835 149.415 103.835 148.622C103.835 147.819 103.998 147.115 104.325 146.508C104.652 145.901 105.109 145.435 105.697 145.108C106.285 144.781 106.962 144.618 107.727 144.618C108.464 144.618 109.122 144.777 109.701 145.094C110.289 145.411 110.742 145.864 111.059 146.452C111.386 147.031 111.549 147.698 111.549 148.454ZM109.519 147.894C109.51 147.39 109.328 146.989 108.973 146.69C108.618 146.382 108.184 146.228 107.671 146.228C107.186 146.228 106.775 146.377 106.439 146.676C106.112 146.965 105.912 147.371 105.837 147.894H109.519ZM114.94 145.948C115.192 145.537 115.518 145.215 115.92 144.982C116.33 144.749 116.797 144.632 117.32 144.632V146.69H116.802C116.186 146.69 115.719 146.835 115.402 147.124C115.094 147.413 114.94 147.917 114.94 148.636V152.5H112.98V144.744H114.94V145.948ZM121.874 150.694L123.834 144.744H125.92L123.05 152.5H120.67L117.814 144.744H119.914L121.874 150.694ZM128.015 143.82C127.669 143.82 127.38 143.713 127.147 143.498C126.923 143.274 126.811 142.999 126.811 142.672C126.811 142.345 126.923 142.075 127.147 141.86C127.38 141.636 127.669 141.524 128.015 141.524C128.36 141.524 128.645 141.636 128.869 141.86C129.102 142.075 129.219 142.345 129.219 142.672C129.219 142.999 129.102 143.274 128.869 143.498C128.645 143.713 128.36 143.82 128.015 143.82ZM128.981 144.744V152.5H127.021V144.744H128.981ZM138.127 148.454C138.127 148.734 138.109 148.986 138.071 149.21H132.401C132.448 149.77 132.644 150.209 132.989 150.526C133.335 150.843 133.759 151.002 134.263 151.002C134.991 151.002 135.509 150.689 135.817 150.064H137.931C137.707 150.811 137.278 151.427 136.643 151.912C136.009 152.388 135.229 152.626 134.305 152.626C133.559 152.626 132.887 152.463 132.289 152.136C131.701 151.8 131.239 151.329 130.903 150.722C130.577 150.115 130.413 149.415 130.413 148.622C130.413 147.819 130.577 147.115 130.903 146.508C131.23 145.901 131.687 145.435 132.275 145.108C132.863 144.781 133.54 144.618 134.305 144.618C135.043 144.618 135.701 144.777 136.279 145.094C136.867 145.411 137.32 145.864 137.637 146.452C137.964 147.031 138.127 147.698 138.127 148.454ZM136.097 147.894C136.088 147.39 135.906 146.989 135.551 146.69C135.197 146.382 134.763 146.228 134.249 146.228C133.764 146.228 133.353 146.377 133.017 146.676C132.691 146.965 132.49 147.371 132.415 147.894H136.097ZM150.31 144.744L148.042 152.5H145.928L144.514 147.082L143.1 152.5H140.972L138.69 144.744H140.678L142.05 150.652L143.534 144.744H145.606L147.062 150.638L148.434 144.744H150.31Z" fill="#6154F0"/>
<path d="M58.32 212.75H55C52.51 212.75 51.25 211.34 51.25 208.55V205.68C51.25 204.66 51.37 203.2 52.43 202.4C53.32 201.74 54.6 201.69 56.49 202.24C58.97 202.96 61.04 205.03 61.76 207.51C62.31 209.39 62.26 210.68 61.6 211.56C60.8 212.63 59.34 212.75 58.32 212.75ZM54.28 203.36C53.87 203.36 53.55 203.44 53.34 203.6C52.95 203.89 52.76 204.57 52.76 205.68V208.56C52.76 210.8 53.62 211.26 55.01 211.26H58.33C59.43 211.26 60.11 211.07 60.41 210.68C60.76 210.22 60.73 209.3 60.34 207.95C59.76 205.98 58.06 204.27 56.09 203.7C55.35 203.47 54.75 203.36 54.28 203.36Z" fill="#9E9E9E"/>
<path d="M51.0699 222.75C50.5399 222.75 49.9999 222.71 49.4599 222.62C45.3699 221.96 42.0399 218.64 41.3799 214.55C40.5299 209.29 43.9199 204.33 49.1099 203.27C49.5199 203.19 49.9099 203.45 49.9999 203.85C50.0799 204.26 49.8199 204.65 49.4199 204.74C45.0299 205.64 42.1499 209.84 42.8799 214.31C43.4399 217.77 46.2499 220.58 49.7099 221.14C54.1999 221.86 58.3899 218.97 59.2799 214.56C59.3599 214.15 59.7599 213.89 60.1599 213.97C60.5699 214.05 60.8299 214.45 60.7499 214.85C59.7999 219.52 55.7199 222.75 51.0699 222.75Z" fill="#9E9E9E"/>
<path d="M84.602 211.614C84.602 210.662 84.8167 209.808 85.246 209.052C85.6753 208.287 86.2587 207.689 86.996 207.26C87.7427 206.831 88.5687 206.616 89.474 206.616C90.538 206.616 91.4667 206.873 92.26 207.386C93.0533 207.899 93.632 208.627 93.996 209.57H92.47C92.1993 208.982 91.8073 208.529 91.294 208.212C90.79 207.895 90.1833 207.736 89.474 207.736C88.7927 207.736 88.1813 207.895 87.64 208.212C87.0987 208.529 86.674 208.982 86.366 209.57C86.058 210.149 85.904 210.83 85.904 211.614C85.904 212.389 86.058 213.07 86.366 213.658C86.674 214.237 87.0987 214.685 87.64 215.002C88.1813 215.319 88.7927 215.478 89.474 215.478C90.1833 215.478 90.79 215.324 91.294 215.016C91.8073 214.699 92.1993 214.246 92.47 213.658H93.996C93.632 214.591 93.0533 215.315 92.26 215.828C91.4667 216.332 90.538 216.584 89.474 216.584C88.5687 216.584 87.7427 216.374 86.996 215.954C86.2587 215.525 85.6753 214.932 85.246 214.176C84.8167 213.42 84.602 212.566 84.602 211.614ZM99.7005 208.688C100.279 208.688 100.802 208.814 101.268 209.066C101.735 209.309 102.099 209.677 102.36 210.172C102.631 210.667 102.766 211.269 102.766 211.978V216.5H101.506V212.16C101.506 211.395 101.315 210.811 100.932 210.41C100.55 209.999 100.027 209.794 99.3645 209.794C98.6925 209.794 98.1558 210.004 97.7545 210.424C97.3625 210.844 97.1665 211.455 97.1665 212.258V216.5H95.8925V206.14H97.1665V209.92C97.4185 209.528 97.7638 209.225 98.2025 209.01C98.6505 208.795 99.1498 208.688 99.7005 208.688ZM104.372 212.636C104.372 211.852 104.53 211.166 104.848 210.578C105.165 209.981 105.599 209.519 106.15 209.192C106.71 208.865 107.33 208.702 108.012 208.702C108.684 208.702 109.267 208.847 109.762 209.136C110.256 209.425 110.625 209.789 110.868 210.228V208.828H112.156V216.5H110.868V215.072C110.616 215.52 110.238 215.893 109.734 216.192C109.239 216.481 108.66 216.626 107.998 216.626C107.316 216.626 106.7 216.458 106.15 216.122C105.599 215.786 105.165 215.315 104.848 214.708C104.53 214.101 104.372 213.411 104.372 212.636ZM110.868 212.65C110.868 212.071 110.751 211.567 110.518 211.138C110.284 210.709 109.967 210.382 109.566 210.158C109.174 209.925 108.74 209.808 108.264 209.808C107.788 209.808 107.354 209.92 106.962 210.144C106.57 210.368 106.257 210.695 106.024 211.124C105.79 211.553 105.674 212.057 105.674 212.636C105.674 213.224 105.79 213.737 106.024 214.176C106.257 214.605 106.57 214.937 106.962 215.17C107.354 215.394 107.788 215.506 108.264 215.506C108.74 215.506 109.174 215.394 109.566 215.17C109.967 214.937 110.284 214.605 110.518 214.176C110.751 213.737 110.868 213.229 110.868 212.65ZM115.582 210.074C115.806 209.635 116.124 209.295 116.534 209.052C116.954 208.809 117.463 208.688 118.06 208.688V210.004H117.724C116.296 210.004 115.582 210.779 115.582 212.328V216.5H114.308V208.828H115.582V210.074ZM121.085 209.878V214.4C121.085 214.773 121.164 215.039 121.323 215.198C121.482 215.347 121.757 215.422 122.149 215.422H123.087V216.5H121.939C121.23 216.5 120.698 216.337 120.343 216.01C119.988 215.683 119.811 215.147 119.811 214.4V209.878H118.817V208.828H119.811V206.896H121.085V208.828H123.087V209.878H121.085Z" fill="#9E9E9E"/>
<path d="M53 273.75H47C46.59 273.75 46.25 273.41 46.25 273C46.25 272.59 46.59 272.25 47 272.25H53C53.41 272.25 53.75 272.59 53.75 273C53.75 273.41 53.41 273.75 53 273.75Z" fill="#9E9E9E"/>
<path d="M59.0399 278.8C57.5299 278.8 56.2499 277.68 56.1299 276.24C56.0499 275.41 56.3499 274.6 56.9499 274.01C57.4499 273.49 58.1599 273.2 58.9099 273.2H60.9999C61.9899 273.23 62.7499 274.01 62.7499 274.97V277.03C62.7499 277.99 61.9899 278.77 61.0299 278.8H59.0399ZM60.9699 274.7H58.9199C58.5699 274.7 58.2499 274.83 58.0199 275.07C57.7299 275.35 57.5899 275.73 57.6299 276.11C57.6799 276.77 58.3199 277.3 59.0399 277.3H60.9999C61.1299 277.3 61.2499 277.18 61.2499 277.03V274.97C61.2499 274.82 61.1299 274.71 60.9699 274.7Z" fill="#9E9E9E"/>
<path d="M56 285.25H47C43.56 285.25 41.25 282.94 41.25 279.5V272.5C41.25 269.42 43.15 267.19 46.1 266.82C46.37 266.78 46.68 266.75 47 266.75H56C56.24 266.75 56.55 266.76 56.87 266.81C59.82 267.15 61.75 269.39 61.75 272.5V273.95C61.75 274.36 61.41 274.7 61 274.7H58.92C58.57 274.7 58.25 274.83 58.02 275.07L58.01 275.08C57.73 275.35 57.6 275.72 57.63 276.1C57.68 276.76 58.32 277.29 59.04 277.29H61C61.41 277.29 61.75 277.63 61.75 278.04V279.49C61.75 282.94 59.44 285.25 56 285.25ZM47 268.25C46.76 268.25 46.53 268.27 46.3 268.3C44.1 268.58 42.75 270.18 42.75 272.5V279.5C42.75 282.08 44.42 283.75 47 283.75H56C58.58 283.75 60.25 282.08 60.25 279.5V278.8H59.04C57.53 278.8 56.25 277.68 56.13 276.24C56.05 275.42 56.35 274.6 56.95 274.02C57.47 273.49 58.17 273.2 58.92 273.2H60.25V272.5C60.25 270.16 58.88 268.55 56.66 268.29C56.42 268.25 56.21 268.25 56 268.25H47Z" fill="#9E9E9E"/>
<path d="M91.084 270.742V271.778H88.424V280.5H87.15V271.778H84.476V270.742H91.084ZM93.9262 274.074C94.1502 273.635 94.4676 273.295 94.8782 273.052C95.2982 272.809 95.8069 272.688 96.4042 272.688V274.004H96.0682C94.6402 274.004 93.9262 274.779 93.9262 276.328V280.5H92.6522V272.828H93.9262V274.074ZM97.3989 276.636C97.3989 275.852 97.5575 275.166 97.8749 274.578C98.1922 273.981 98.6262 273.519 99.1769 273.192C99.7369 272.865 100.358 272.702 101.039 272.702C101.711 272.702 102.294 272.847 102.789 273.136C103.284 273.425 103.652 273.789 103.895 274.228V272.828H105.183V280.5H103.895V279.072C103.643 279.52 103.265 279.893 102.761 280.192C102.266 280.481 101.688 280.626 101.025 280.626C100.344 280.626 99.7275 280.458 99.1769 280.122C98.6262 279.786 98.1922 279.315 97.8749 278.708C97.5575 278.101 97.3989 277.411 97.3989 276.636ZM103.895 276.65C103.895 276.071 103.778 275.567 103.545 275.138C103.312 274.709 102.994 274.382 102.593 274.158C102.201 273.925 101.767 273.808 101.291 273.808C100.815 273.808 100.381 273.92 99.9889 274.144C99.5969 274.368 99.2842 274.695 99.0509 275.124C98.8175 275.553 98.7009 276.057 98.7009 276.636C98.7009 277.224 98.8175 277.737 99.0509 278.176C99.2842 278.605 99.5969 278.937 99.9889 279.17C100.381 279.394 100.815 279.506 101.291 279.506C101.767 279.506 102.201 279.394 102.593 279.17C102.994 278.937 103.312 278.605 103.545 278.176C103.778 277.737 103.895 277.229 103.895 276.65ZM111.074 272.688C112.007 272.688 112.763 272.973 113.342 273.542C113.92 274.102 114.21 274.914 114.21 275.978V280.5H112.95V276.16C112.95 275.395 112.758 274.811 112.376 274.41C111.993 273.999 111.47 273.794 110.808 273.794C110.136 273.794 109.599 274.004 109.198 274.424C108.806 274.844 108.61 275.455 108.61 276.258V280.5H107.336V272.828H108.61V273.92C108.862 273.528 109.202 273.225 109.632 273.01C110.07 272.795 110.551 272.688 111.074 272.688ZM119.007 280.626C118.419 280.626 117.892 280.528 117.425 280.332C116.958 280.127 116.59 279.847 116.319 279.492C116.048 279.128 115.899 278.713 115.871 278.246H117.187C117.224 278.629 117.402 278.941 117.719 279.184C118.046 279.427 118.47 279.548 118.993 279.548C119.478 279.548 119.861 279.441 120.141 279.226C120.421 279.011 120.561 278.741 120.561 278.414C120.561 278.078 120.412 277.831 120.113 277.672C119.814 277.504 119.352 277.341 118.727 277.182C118.158 277.033 117.691 276.883 117.327 276.734C116.972 276.575 116.664 276.347 116.403 276.048C116.151 275.74 116.025 275.339 116.025 274.844C116.025 274.452 116.142 274.093 116.375 273.766C116.608 273.439 116.94 273.183 117.369 272.996C117.798 272.8 118.288 272.702 118.839 272.702C119.688 272.702 120.374 272.917 120.897 273.346C121.42 273.775 121.7 274.363 121.737 275.11H120.463C120.435 274.709 120.272 274.387 119.973 274.144C119.684 273.901 119.292 273.78 118.797 273.78C118.34 273.78 117.976 273.878 117.705 274.074C117.434 274.27 117.299 274.527 117.299 274.844C117.299 275.096 117.378 275.306 117.537 275.474C117.705 275.633 117.91 275.763 118.153 275.866C118.405 275.959 118.75 276.067 119.189 276.188C119.74 276.337 120.188 276.487 120.533 276.636C120.878 276.776 121.172 276.991 121.415 277.28C121.667 277.569 121.798 277.947 121.807 278.414C121.807 278.834 121.69 279.212 121.457 279.548C121.224 279.884 120.892 280.15 120.463 280.346C120.043 280.533 119.558 280.626 119.007 280.626ZM123.129 276.636C123.129 275.852 123.288 275.166 123.605 274.578C123.923 273.981 124.357 273.519 124.907 273.192C125.467 272.865 126.088 272.702 126.769 272.702C127.441 272.702 128.025 272.847 128.519 273.136C129.014 273.425 129.383 273.789 129.625 274.228V272.828H130.913V280.5H129.625V279.072C129.373 279.52 128.995 279.893 128.491 280.192C127.997 280.481 127.418 280.626 126.755 280.626C126.074 280.626 125.458 280.458 124.907 280.122C124.357 279.786 123.923 279.315 123.605 278.708C123.288 278.101 123.129 277.411 123.129 276.636ZM129.625 276.65C129.625 276.071 129.509 275.567 129.275 275.138C129.042 274.709 128.725 274.382 128.323 274.158C127.931 273.925 127.497 273.808 127.021 273.808C126.545 273.808 126.111 273.92 125.719 274.144C125.327 274.368 125.015 274.695 124.781 275.124C124.548 275.553 124.431 276.057 124.431 276.636C124.431 277.224 124.548 277.737 124.781 278.176C125.015 278.605 125.327 278.937 125.719 279.17C126.111 279.394 126.545 279.506 127.021 279.506C127.497 279.506 127.931 279.394 128.323 279.17C128.725 278.937 129.042 278.605 129.275 278.176C129.509 277.737 129.625 277.229 129.625 276.65ZM132.59 276.65C132.59 275.857 132.749 275.166 133.066 274.578C133.384 273.981 133.822 273.519 134.382 273.192C134.952 272.865 135.6 272.702 136.328 272.702C137.271 272.702 138.046 272.931 138.652 273.388C139.268 273.845 139.674 274.48 139.87 275.292H138.498C138.368 274.825 138.111 274.457 137.728 274.186C137.355 273.915 136.888 273.78 136.328 273.78C135.6 273.78 135.012 274.032 134.564 274.536C134.116 275.031 133.892 275.735 133.892 276.65C133.892 277.574 134.116 278.288 134.564 278.792C135.012 279.296 135.6 279.548 136.328 279.548C136.888 279.548 137.355 279.417 137.728 279.156C138.102 278.895 138.358 278.521 138.498 278.036H139.87C139.665 278.82 139.254 279.45 138.638 279.926C138.022 280.393 137.252 280.626 136.328 280.626C135.6 280.626 134.952 280.463 134.382 280.136C133.822 279.809 133.384 279.347 133.066 278.75C132.749 278.153 132.59 277.453 132.59 276.65ZM143.124 273.878V278.4C143.124 278.773 143.204 279.039 143.362 279.198C143.521 279.347 143.796 279.422 144.188 279.422H145.126V280.5H143.978C143.269 280.5 142.737 280.337 142.382 280.01C142.028 279.683 141.85 279.147 141.85 278.4V273.878H140.856V272.828H141.85V270.896H143.124V272.828H145.126V273.878H143.124ZM147.328 271.582C147.085 271.582 146.88 271.498 146.712 271.33C146.544 271.162 146.46 270.957 146.46 270.714C146.46 270.471 146.544 270.266 146.712 270.098C146.88 269.93 147.085 269.846 147.328 269.846C147.561 269.846 147.757 269.93 147.916 270.098C148.084 270.266 148.168 270.471 148.168 270.714C148.168 270.957 148.084 271.162 147.916 271.33C147.757 271.498 147.561 271.582 147.328 271.582ZM147.944 272.828V280.5H146.67V272.828H147.944ZM153.461 280.626C152.742 280.626 152.089 280.463 151.501 280.136C150.922 279.809 150.465 279.347 150.129 278.75C149.802 278.143 149.639 277.443 149.639 276.65C149.639 275.866 149.807 275.175 150.143 274.578C150.488 273.971 150.955 273.509 151.543 273.192C152.131 272.865 152.789 272.702 153.517 272.702C154.245 272.702 154.903 272.865 155.491 273.192C156.079 273.509 156.541 273.967 156.877 274.564C157.222 275.161 157.395 275.857 157.395 276.65C157.395 277.443 157.218 278.143 156.863 278.75C156.518 279.347 156.046 279.809 155.449 280.136C154.852 280.463 154.189 280.626 153.461 280.626ZM153.461 279.506C153.918 279.506 154.348 279.399 154.749 279.184C155.15 278.969 155.472 278.647 155.715 278.218C155.967 277.789 156.093 277.266 156.093 276.65C156.093 276.034 155.972 275.511 155.729 275.082C155.486 274.653 155.169 274.335 154.777 274.13C154.385 273.915 153.96 273.808 153.503 273.808C153.036 273.808 152.607 273.915 152.215 274.13C151.832 274.335 151.524 274.653 151.291 275.082C151.058 275.511 150.941 276.034 150.941 276.65C150.941 277.275 151.053 277.803 151.277 278.232C151.51 278.661 151.818 278.983 152.201 279.198C152.584 279.403 153.004 279.506 153.461 279.506ZM162.808 272.688C163.742 272.688 164.498 272.973 165.076 273.542C165.655 274.102 165.944 274.914 165.944 275.978V280.5H164.684V276.16C164.684 275.395 164.493 274.811 164.11 274.41C163.728 273.999 163.205 273.794 162.542 273.794C161.87 273.794 161.334 274.004 160.932 274.424C160.54 274.844 160.344 275.455 160.344 276.258V280.5H159.07V272.828H160.344V273.92C160.596 273.528 160.937 273.225 161.366 273.01C161.805 272.795 162.286 272.688 162.808 272.688ZM170.741 280.626C170.153 280.626 169.626 280.528 169.159 280.332C168.693 280.127 168.324 279.847 168.053 279.492C167.783 279.128 167.633 278.713 167.605 278.246H168.921C168.959 278.629 169.136 278.941 169.453 279.184C169.78 279.427 170.205 279.548 170.727 279.548C171.213 279.548 171.595 279.441 171.875 279.226C172.155 279.011 172.295 278.741 172.295 278.414C172.295 278.078 172.146 277.831 171.847 277.672C171.549 277.504 171.087 277.341 170.461 277.182C169.892 277.033 169.425 276.883 169.061 276.734C168.707 276.575 168.399 276.347 168.137 276.048C167.885 275.74 167.759 275.339 167.759 274.844C167.759 274.452 167.876 274.093 168.109 273.766C168.343 273.439 168.674 273.183 169.103 272.996C169.533 272.8 170.023 272.702 170.573 272.702C171.423 272.702 172.109 272.917 172.631 273.346C173.154 273.775 173.434 274.363 173.471 275.11H172.197C172.169 274.709 172.006 274.387 171.707 274.144C171.418 273.901 171.026 273.78 170.531 273.78C170.074 273.78 169.71 273.878 169.439 274.074C169.169 274.27 169.033 274.527 169.033 274.844C169.033 275.096 169.113 275.306 169.271 275.474C169.439 275.633 169.645 275.763 169.887 275.866C170.139 275.959 170.485 276.067 170.923 276.188C171.474 276.337 171.922 276.487 172.267 276.636C172.613 276.776 172.907 276.991 173.149 277.28C173.401 277.569 173.532 277.947 173.541 278.414C173.541 278.834 173.425 279.212 173.191 279.548C172.958 279.884 172.627 280.15 172.197 280.346C171.777 280.533 171.292 280.626 170.741 280.626Z" fill="#9E9E9E"/>
<path d="M54.5 344.75H49.5C49.09 344.75 48.75 344.41 48.75 344C48.75 343.59 49.09 343.25 49.5 343.25H54.5C54.91 343.25 55.25 343.59 55.25 344C55.25 344.41 54.91 344.75 54.5 344.75Z" fill="#9E9E9E"/>
<path d="M45.1999 338.46C45.0099 338.46 44.8199 338.38 44.6699 338.24C44.4599 338.03 44.3899 337.7 44.5099 337.42L46.3699 332.98C46.4099 332.89 46.4299 332.83 46.4599 332.78C47.9399 329.37 49.8299 328.54 53.1699 329.82C53.3599 329.89 53.5099 330.04 53.5899 330.23C53.6699 330.42 53.6699 330.63 53.5899 330.82L50.6599 337.62C50.5399 337.89 50.2699 338.07 49.9699 338.07H47.1199C46.5499 338.07 46.0099 338.18 45.4899 338.4C45.3999 338.44 45.2999 338.46 45.1999 338.46ZM50.6099 330.75C49.3699 330.75 48.6099 331.56 47.8199 333.4C47.8099 333.43 47.7899 333.46 47.7799 333.49L46.4699 336.6C46.6899 336.58 46.8999 336.57 47.1199 336.57H49.4699L51.8799 330.97C51.4099 330.82 50.9899 330.75 50.6099 330.75Z" fill="#9E9E9E"/>
<path d="M58.29 338.27C58.22 338.27 58.14 338.26 58.07 338.24C57.7 338.13 57.29 338.07 56.87 338.07H49.97C49.72 338.07 49.48 337.94 49.34 337.73C49.21 337.52 49.18 337.25 49.28 337.02L52.18 330.29C52.33 329.93 52.76 329.69 53.14 329.81C53.26 329.85 53.37 329.9 53.49 329.95L55.85 330.94C57.23 331.51 58.15 332.11 58.75 332.83C58.87 332.97 58.97 333.12 59.06 333.27C59.17 333.44 59.27 333.65 59.34 333.86C59.37 333.93 59.42 334.06 59.45 334.2C59.73 335.14 59.59 336.31 58.99 337.81C58.87 338.09 58.59 338.27 58.29 338.27ZM51.11 336.57H56.88C57.2 336.57 57.51 336.6 57.82 336.65C58.1 335.78 58.16 335.11 58 334.57C57.98 334.48 57.96 334.44 57.95 334.4C57.89 334.24 57.85 334.15 57.8 334.07C57.73 333.96 57.68 333.87 57.6 333.78C57.17 333.26 56.41 332.78 55.28 332.32L53.3 331.49L51.11 336.57Z" fill="#9E9E9E"/>
<path d="M55.9 350.75H48.1C47.82 350.75 47.56 350.73 47.3 350.7C43.79 350.46 41.79 348.46 41.55 344.91C41.52 344.69 41.5 344.42 41.5 344.15V342.2C41.5 339.95 42.84 337.92 44.91 337.02C45.61 336.72 46.36 336.57 47.13 336.57H56.89C57.46 336.57 58.01 336.65 58.52 336.81C60.87 337.52 62.52 339.74 62.52 342.2V344.15C62.52 344.37 62.51 344.58 62.5 344.78C62.28 348.69 60 350.75 55.9 350.75ZM47.12 338.07C46.55 338.07 46.01 338.18 45.49 338.4C43.97 339.06 42.99 340.55 42.99 342.2V344.15C42.99 344.36 43.01 344.57 43.03 344.77C43.22 347.62 44.62 349.02 47.43 349.21C47.68 349.24 47.88 349.26 48.09 349.26H55.89C59.19 349.26 60.81 347.81 60.97 344.71C60.98 344.53 60.99 344.35 60.99 344.15V342.2C60.99 340.39 59.78 338.77 58.06 338.24C57.69 338.13 57.28 338.07 56.86 338.07H47.12Z" fill="#9E9E9E"/>
<path d="M42.24 342.95C41.83 342.95 41.49 342.61 41.49 342.2V339.27C41.49 336.12 43.72 333.4 46.8 332.8C47.07 332.75 47.35 332.85 47.53 333.06C47.7 333.27 47.75 333.57 47.64 333.82L45.89 338C45.81 338.18 45.67 338.32 45.5 338.4C43.98 339.06 43 340.55 43 342.2C42.99 342.61 42.66 342.95 42.24 342.95ZM45.6 334.82C44.32 335.54 43.39 336.8 43.1 338.27C43.54 337.82 44.05 337.44 44.63 337.16L45.6 334.82Z" fill="#9E9E9E"/>
<path d="M61.7599 342.95C61.3499 342.95 61.0099 342.61 61.0099 342.2C61.0099 340.39 59.7999 338.77 58.0799 338.24C57.8799 338.18 57.7099 338.04 57.6199 337.85C57.5299 337.66 57.5199 337.44 57.5999 337.25C58.0699 336.08 58.1899 335.23 57.9999 334.57C57.9799 334.48 57.9599 334.44 57.9499 334.4C57.8199 334.11 57.8899 333.77 58.1199 333.55C58.3499 333.33 58.6999 333.28 58.9799 333.43C61.1599 334.57 62.5099 336.81 62.5099 339.27V342.2C62.5099 342.61 62.1699 342.95 61.7599 342.95ZM59.2499 337.09C59.8799 337.38 60.4399 337.79 60.9099 338.28C60.7199 337.3 60.2499 336.41 59.5599 335.71C59.5099 336.13 59.4099 336.59 59.2499 337.09Z" fill="#9E9E9E"/>
<path d="M97.342 334.742L94.514 344.5H93.086L90.818 336.646L88.466 344.5L87.052 344.514L84.322 334.742H85.68L87.808 343.016L90.16 334.742H91.588L93.828 342.988L95.97 334.742H97.342ZM98.2602 340.636C98.2602 339.852 98.4189 339.166 98.7362 338.578C99.0535 337.981 99.4875 337.519 100.038 337.192C100.598 336.865 101.219 336.702 101.9 336.702C102.572 336.702 103.156 336.847 103.65 337.136C104.145 337.425 104.514 337.789 104.756 338.228V336.828H106.044V344.5H104.756V343.072C104.504 343.52 104.126 343.893 103.622 344.192C103.128 344.481 102.549 344.626 101.886 344.626C101.205 344.626 100.589 344.458 100.038 344.122C99.4875 343.786 99.0535 343.315 98.7362 342.708C98.4189 342.101 98.2602 341.411 98.2602 340.636ZM104.756 340.65C104.756 340.071 104.64 339.567 104.406 339.138C104.173 338.709 103.856 338.382 103.454 338.158C103.062 337.925 102.628 337.808 102.152 337.808C101.676 337.808 101.242 337.92 100.85 338.144C100.458 338.368 100.146 338.695 99.9122 339.124C99.6789 339.553 99.5622 340.057 99.5622 340.636C99.5622 341.224 99.6789 341.737 99.9122 342.176C100.146 342.605 100.458 342.937 100.85 343.17C101.242 343.394 101.676 343.506 102.152 343.506C102.628 343.506 103.062 343.394 103.454 343.17C103.856 342.937 104.173 342.605 104.406 342.176C104.64 341.737 104.756 341.229 104.756 340.65ZM109.471 334.14V344.5H108.197V334.14H109.471ZM112.916 334.14V344.5H111.642V334.14H112.916ZM122.088 340.37C122.088 340.613 122.074 340.869 122.046 341.14H115.914C115.96 341.896 116.217 342.489 116.684 342.918C117.16 343.338 117.734 343.548 118.406 343.548C118.956 343.548 119.414 343.422 119.778 343.17C120.151 342.909 120.412 342.563 120.562 342.134H121.934C121.728 342.871 121.318 343.473 120.702 343.94C120.086 344.397 119.32 344.626 118.406 344.626C117.678 344.626 117.024 344.463 116.446 344.136C115.876 343.809 115.428 343.347 115.102 342.75C114.775 342.143 114.612 341.443 114.612 340.65C114.612 339.857 114.77 339.161 115.088 338.564C115.405 337.967 115.848 337.509 116.418 337.192C116.996 336.865 117.659 336.702 118.406 336.702C119.134 336.702 119.778 336.861 120.338 337.178C120.898 337.495 121.327 337.934 121.626 338.494C121.934 339.045 122.088 339.67 122.088 340.37ZM120.772 340.104C120.772 339.619 120.664 339.203 120.45 338.858C120.235 338.503 119.941 338.237 119.568 338.06C119.204 337.873 118.798 337.78 118.35 337.78C117.706 337.78 117.155 337.985 116.698 338.396C116.25 338.807 115.993 339.376 115.928 340.104H120.772ZM125.323 337.878V342.4C125.323 342.773 125.403 343.039 125.561 343.198C125.72 343.347 125.995 343.422 126.387 343.422H127.325V344.5H126.177C125.468 344.5 124.936 344.337 124.581 344.01C124.227 343.683 124.049 343.147 124.049 342.4V337.878H123.055V336.828H124.049V334.896H125.323V336.828H127.325V337.878H125.323Z" fill="#9E9E9E"/>
<path d="M57 413.25H47C43.35 413.25 41.25 411.15 41.25 407.5V400.5C41.25 396.85 43.35 394.75 47 394.75H57C60.65 394.75 62.75 396.85 62.75 400.5V407.5C62.75 411.15 60.65 413.25 57 413.25ZM47 396.25C44.14 396.25 42.75 397.64 42.75 400.5V407.5C42.75 410.36 44.14 411.75 47 411.75H57C59.86 411.75 61.25 410.36 61.25 407.5V400.5C61.25 397.64 59.86 396.25 57 396.25H47Z" fill="#9E9E9E"/>
<path d="M51.9998 404.87C51.1598 404.87 50.3098 404.61 49.6598 404.08L46.5298 401.58C46.2098 401.32 46.1498 400.85 46.4098 400.53C46.6698 400.21 47.1398 400.15 47.4598 400.41L50.5898 402.91C51.3498 403.52 52.6398 403.52 53.3998 402.91L56.5298 400.41C56.8498 400.15 57.3298 400.2 57.5798 400.53C57.8398 400.85 57.7898 401.33 57.4598 401.58L54.3298 404.08C53.6898 404.61 52.8398 404.87 51.9998 404.87Z" fill="#9E9E9E"/>
<path d="M94.976 398.812V408.5H93.702V401.276L90.482 408.5H89.586L86.352 401.262V408.5H85.078V398.812H86.45L90.034 406.82L93.618 398.812H94.976ZM96.6606 404.636C96.6606 403.852 96.8193 403.166 97.1366 402.578C97.4539 401.981 97.8879 401.519 98.4386 401.192C98.9986 400.865 99.6193 400.702 100.301 400.702C100.973 400.702 101.556 400.847 102.051 401.136C102.545 401.425 102.914 401.789 103.157 402.228V400.828H104.445V408.5H103.157V407.072C102.905 407.52 102.527 407.893 102.023 408.192C101.528 408.481 100.949 408.626 100.287 408.626C99.6053 408.626 98.9893 408.458 98.4386 408.122C97.8879 407.786 97.4539 407.315 97.1366 406.708C96.8193 406.101 96.6606 405.411 96.6606 404.636ZM103.157 404.65C103.157 404.071 103.04 403.567 102.807 403.138C102.573 402.709 102.256 402.382 101.855 402.158C101.463 401.925 101.029 401.808 100.553 401.808C100.077 401.808 99.6426 401.92 99.2506 402.144C98.8586 402.368 98.5459 402.695 98.3126 403.124C98.0793 403.553 97.9626 404.057 97.9626 404.636C97.9626 405.224 98.0793 405.737 98.3126 406.176C98.5459 406.605 98.8586 406.937 99.2506 407.17C99.6426 407.394 100.077 407.506 100.553 407.506C101.029 407.506 101.463 407.394 101.855 407.17C102.256 406.937 102.573 406.605 102.807 406.176C103.04 405.737 103.157 405.229 103.157 404.65ZM107.256 399.582C107.013 399.582 106.808 399.498 106.64 399.33C106.472 399.162 106.388 398.957 106.388 398.714C106.388 398.471 106.472 398.266 106.64 398.098C106.808 397.93 107.013 397.846 107.256 397.846C107.489 397.846 107.685 397.93 107.844 398.098C108.012 398.266 108.096 398.471 108.096 398.714C108.096 398.957 108.012 399.162 107.844 399.33C107.685 399.498 107.489 399.582 107.256 399.582ZM107.872 400.828V408.5H106.598V400.828H107.872ZM111.317 398.14V408.5H110.043V398.14H111.317ZM122.107 403.474C122.461 403.53 122.783 403.675 123.073 403.908C123.371 404.141 123.605 404.431 123.773 404.776C123.95 405.121 124.039 405.49 124.039 405.882C124.039 406.377 123.913 406.825 123.661 407.226C123.409 407.618 123.04 407.931 122.555 408.164C122.079 408.388 121.514 408.5 120.861 408.5H117.221V398.742H120.721C121.383 398.742 121.948 398.854 122.415 399.078C122.881 399.293 123.231 399.587 123.465 399.96C123.698 400.333 123.815 400.753 123.815 401.22C123.815 401.799 123.656 402.279 123.339 402.662C123.031 403.035 122.62 403.306 122.107 403.474ZM118.495 402.956H120.637C121.234 402.956 121.696 402.816 122.023 402.536C122.349 402.256 122.513 401.869 122.513 401.374C122.513 400.879 122.349 400.492 122.023 400.212C121.696 399.932 121.225 399.792 120.609 399.792H118.495V402.956ZM120.749 407.45C121.383 407.45 121.878 407.301 122.233 407.002C122.587 406.703 122.765 406.288 122.765 405.756C122.765 405.215 122.578 404.79 122.205 404.482C121.831 404.165 121.332 404.006 120.707 404.006H118.495V407.45H120.749ZM129.153 408.626C128.434 408.626 127.781 408.463 127.193 408.136C126.614 407.809 126.157 407.347 125.821 406.75C125.494 406.143 125.331 405.443 125.331 404.65C125.331 403.866 125.499 403.175 125.835 402.578C126.18 401.971 126.647 401.509 127.235 401.192C127.823 400.865 128.481 400.702 129.209 400.702C129.937 400.702 130.595 400.865 131.183 401.192C131.771 401.509 132.233 401.967 132.569 402.564C132.914 403.161 133.087 403.857 133.087 404.65C133.087 405.443 132.909 406.143 132.555 406.75C132.209 407.347 131.738 407.809 131.141 408.136C130.543 408.463 129.881 408.626 129.153 408.626ZM129.153 407.506C129.61 407.506 130.039 407.399 130.441 407.184C130.842 406.969 131.164 406.647 131.407 406.218C131.659 405.789 131.785 405.266 131.785 404.65C131.785 404.034 131.663 403.511 131.421 403.082C131.178 402.653 130.861 402.335 130.469 402.13C130.077 401.915 129.652 401.808 129.195 401.808C128.728 401.808 128.299 401.915 127.907 402.13C127.524 402.335 127.216 402.653 126.983 403.082C126.749 403.511 126.633 404.034 126.633 404.65C126.633 405.275 126.745 405.803 126.969 406.232C127.202 406.661 127.51 406.983 127.893 407.198C128.275 407.403 128.695 407.506 129.153 407.506ZM138.766 408.5L136.946 405.644L135.196 408.5H133.866L136.344 404.692L133.866 400.828H135.308L137.128 403.67L138.864 400.828H140.194L137.73 404.622L140.208 408.5H138.766Z" fill="#9E9E9E"/>
<path d="M52 471.75C49.93 471.75 48.25 470.07 48.25 468C48.25 465.93 49.93 464.25 52 464.25C54.07 464.25 55.75 465.93 55.75 468C55.75 470.07 54.07 471.75 52 471.75ZM52 465.75C50.76 465.75 49.75 466.76 49.75 468C49.75 469.24 50.76 470.25 52 470.25C53.24 470.25 54.25 469.24 54.25 468C54.25 466.76 53.24 465.75 52 465.75Z" fill="#9E9E9E"/>
<path d="M55.21 478.19C55 478.19 54.79 478.16 54.58 478.11C53.96 477.94 53.44 477.55 53.11 477L52.99 476.8C52.4 475.78 51.59 475.78 51 476.8L50.89 476.99C50.56 477.55 50.04 477.95 49.42 478.11C48.79 478.28 48.14 478.19 47.59 477.86L45.87 476.87C45.26 476.52 44.82 475.95 44.63 475.26C44.45 474.57 44.54 473.86 44.89 473.25C45.18 472.74 45.26 472.28 45.09 471.99C44.92 471.7 44.49 471.53 43.9 471.53C42.44 471.53 41.25 470.34 41.25 468.88V467.12C41.25 465.66 42.44 464.47 43.9 464.47C44.49 464.47 44.92 464.3 45.09 464.01C45.26 463.72 45.19 463.26 44.89 462.75C44.54 462.14 44.45 461.42 44.63 460.74C44.81 460.05 45.25 459.48 45.87 459.13L47.6 458.14C48.73 457.47 50.22 457.86 50.9 459.01L51.02 459.21C51.61 460.23 52.42 460.23 53.01 459.21L53.12 459.02C53.8 457.86 55.29 457.47 56.43 458.15L58.15 459.14C58.76 459.49 59.2 460.06 59.39 460.75C59.57 461.44 59.48 462.15 59.13 462.76C58.84 463.27 58.76 463.73 58.93 464.02C59.1 464.31 59.53 464.48 60.12 464.48C61.58 464.48 62.77 465.67 62.77 467.13V468.89C62.77 470.35 61.58 471.54 60.12 471.54C59.53 471.54 59.1 471.71 58.93 472C58.76 472.29 58.83 472.75 59.13 473.26C59.48 473.87 59.58 474.59 59.39 475.27C59.21 475.96 58.77 476.53 58.15 476.88L56.42 477.87C56.04 478.08 55.63 478.19 55.21 478.19ZM52 474.49C52.89 474.49 53.72 475.05 54.29 476.04L54.4 476.23C54.52 476.44 54.72 476.59 54.96 476.65C55.2 476.71 55.44 476.68 55.64 476.56L57.37 475.56C57.63 475.41 57.83 475.16 57.91 474.86C57.99 474.56 57.95 474.25 57.8 473.99C57.23 473.01 57.16 472 57.6 471.23C58.04 470.46 58.95 470.02 60.09 470.02C60.73 470.02 61.24 469.51 61.24 468.87V467.11C61.24 466.48 60.73 465.96 60.09 465.96C58.95 465.96 58.04 465.52 57.6 464.75C57.16 463.98 57.23 462.97 57.8 461.99C57.95 461.73 57.99 461.42 57.91 461.12C57.83 460.82 57.64 460.58 57.38 460.42L55.65 459.43C55.22 459.17 54.65 459.32 54.39 459.76L54.28 459.95C53.71 460.94 52.88 461.5 51.99 461.5C51.1 461.5 50.27 460.94 49.7 459.95L49.59 459.75C49.34 459.33 48.78 459.18 48.35 459.43L46.62 460.43C46.36 460.58 46.16 460.83 46.08 461.13C46 461.43 46.04 461.74 46.19 462C46.76 462.98 46.83 463.99 46.39 464.76C45.95 465.53 45.04 465.97 43.9 465.97C43.26 465.97 42.75 466.48 42.75 467.12V468.88C42.75 469.51 43.26 470.03 43.9 470.03C45.04 470.03 45.95 470.47 46.39 471.24C46.83 472.01 46.76 473.02 46.19 474C46.04 474.26 46 474.57 46.08 474.87C46.16 475.17 46.35 475.41 46.61 475.57L48.34 476.56C48.55 476.69 48.8 476.72 49.03 476.66C49.27 476.6 49.47 476.44 49.6 476.23L49.71 476.04C50.28 475.06 51.11 474.49 52 474.49Z" fill="#9E9E9E"/>
<path d="M88.172 472.598C87.528 472.598 86.9493 472.486 86.436 472.262C85.932 472.029 85.5353 471.711 85.246 471.31C84.9567 470.899 84.8073 470.428 84.798 469.896H86.156C86.2027 470.353 86.3893 470.741 86.716 471.058C87.052 471.366 87.5373 471.52 88.172 471.52C88.7787 471.52 89.2547 471.371 89.6 471.072C89.9547 470.764 90.132 470.372 90.132 469.896C90.132 469.523 90.0293 469.219 89.824 468.986C89.6187 468.753 89.362 468.575 89.054 468.454C88.746 468.333 88.3307 468.202 87.808 468.062C87.164 467.894 86.646 467.726 86.254 467.558C85.8713 467.39 85.54 467.129 85.26 466.774C84.9893 466.41 84.854 465.925 84.854 465.318C84.854 464.786 84.9893 464.315 85.26 463.904C85.5307 463.493 85.9087 463.176 86.394 462.952C86.8887 462.728 87.4533 462.616 88.088 462.616C89.0027 462.616 89.7493 462.845 90.328 463.302C90.916 463.759 91.2473 464.366 91.322 465.122H89.922C89.8753 464.749 89.6793 464.422 89.334 464.142C88.9887 463.853 88.5313 463.708 87.962 463.708C87.43 463.708 86.996 463.848 86.66 464.128C86.324 464.399 86.156 464.781 86.156 465.276C86.156 465.631 86.254 465.92 86.45 466.144C86.6553 466.368 86.9027 466.541 87.192 466.662C87.4907 466.774 87.906 466.905 88.438 467.054C89.082 467.231 89.6 467.409 89.992 467.586C90.384 467.754 90.72 468.02 91 468.384C91.28 468.739 91.42 469.224 91.42 469.84C91.42 470.316 91.294 470.764 91.042 471.184C90.79 471.604 90.4167 471.945 89.922 472.206C89.4273 472.467 88.844 472.598 88.172 472.598ZM100.295 468.37C100.295 468.613 100.281 468.869 100.253 469.14H94.1208C94.1675 469.896 94.4241 470.489 94.8908 470.918C95.3668 471.338 95.9408 471.548 96.6128 471.548C97.1635 471.548 97.6208 471.422 97.9848 471.17C98.3581 470.909 98.6195 470.563 98.7688 470.134H100.141C99.9355 470.871 99.5248 471.473 98.9088 471.94C98.2928 472.397 97.5275 472.626 96.6128 472.626C95.8848 472.626 95.2315 472.463 94.6528 472.136C94.0835 471.809 93.6355 471.347 93.3088 470.75C92.9821 470.143 92.8188 469.443 92.8188 468.65C92.8188 467.857 92.9775 467.161 93.2948 466.564C93.6121 465.967 94.0555 465.509 94.6248 465.192C95.2035 464.865 95.8661 464.702 96.6128 464.702C97.3408 464.702 97.9848 464.861 98.5448 465.178C99.1048 465.495 99.5341 465.934 99.8328 466.494C100.141 467.045 100.295 467.67 100.295 468.37ZM98.9788 468.104C98.9788 467.619 98.8715 467.203 98.6568 466.858C98.4421 466.503 98.1481 466.237 97.7748 466.06C97.4108 465.873 97.0048 465.78 96.5568 465.78C95.9128 465.78 95.3621 465.985 94.9048 466.396C94.4568 466.807 94.2001 467.376 94.1348 468.104H98.9788ZM103.53 465.878V470.4C103.53 470.773 103.61 471.039 103.768 471.198C103.927 471.347 104.202 471.422 104.594 471.422H105.532V472.5H104.384C103.675 472.5 103.143 472.337 102.788 472.01C102.434 471.683 102.256 471.147 102.256 470.4V465.878H101.262V464.828H102.256V462.896H103.53V464.828H105.532V465.878H103.53ZM108.63 465.878V470.4C108.63 470.773 108.709 471.039 108.868 471.198C109.027 471.347 109.302 471.422 109.694 471.422H110.632V472.5H109.484C108.775 472.5 108.243 472.337 107.888 472.01C107.533 471.683 107.356 471.147 107.356 470.4V465.878H106.362V464.828H107.356V462.896H108.63V464.828H110.632V465.878H108.63ZM112.834 463.582C112.591 463.582 112.386 463.498 112.218 463.33C112.05 463.162 111.966 462.957 111.966 462.714C111.966 462.471 112.05 462.266 112.218 462.098C112.386 461.93 112.591 461.846 112.834 461.846C113.067 461.846 113.263 461.93 113.422 462.098C113.59 462.266 113.674 462.471 113.674 462.714C113.674 462.957 113.59 463.162 113.422 463.33C113.263 463.498 113.067 463.582 112.834 463.582ZM113.45 464.828V472.5H112.176V464.828H113.45ZM119.359 464.688C120.292 464.688 121.048 464.973 121.627 465.542C122.206 466.102 122.495 466.914 122.495 467.978V472.5H121.235V468.16C121.235 467.395 121.044 466.811 120.661 466.41C120.278 465.999 119.756 465.794 119.093 465.794C118.421 465.794 117.884 466.004 117.483 466.424C117.091 466.844 116.895 467.455 116.895 468.258V472.5H115.621V464.828H116.895V465.92C117.147 465.528 117.488 465.225 117.917 465.01C118.356 464.795 118.836 464.688 119.359 464.688ZM127.74 464.702C128.403 464.702 128.981 464.847 129.476 465.136C129.98 465.425 130.353 465.789 130.596 466.228V464.828H131.884V472.668C131.884 473.368 131.735 473.989 131.436 474.53C131.137 475.081 130.708 475.51 130.148 475.818C129.597 476.126 128.953 476.28 128.216 476.28C127.208 476.28 126.368 476.042 125.696 475.566C125.024 475.09 124.627 474.441 124.506 473.62H125.766C125.906 474.087 126.195 474.46 126.634 474.74C127.073 475.029 127.6 475.174 128.216 475.174C128.916 475.174 129.485 474.955 129.924 474.516C130.372 474.077 130.596 473.461 130.596 472.668V471.058C130.344 471.506 129.971 471.879 129.476 472.178C128.981 472.477 128.403 472.626 127.74 472.626C127.059 472.626 126.438 472.458 125.878 472.122C125.327 471.786 124.893 471.315 124.576 470.708C124.259 470.101 124.1 469.411 124.1 468.636C124.1 467.852 124.259 467.166 124.576 466.578C124.893 465.981 125.327 465.519 125.878 465.192C126.438 464.865 127.059 464.702 127.74 464.702ZM130.596 468.65C130.596 468.071 130.479 467.567 130.246 467.138C130.013 466.709 129.695 466.382 129.294 466.158C128.902 465.925 128.468 465.808 127.992 465.808C127.516 465.808 127.082 465.92 126.69 466.144C126.298 466.368 125.985 466.695 125.752 467.124C125.519 467.553 125.402 468.057 125.402 468.636C125.402 469.224 125.519 469.737 125.752 470.176C125.985 470.605 126.298 470.937 126.69 471.17C127.082 471.394 127.516 471.506 127.992 471.506C128.468 471.506 128.902 471.394 129.294 471.17C129.695 470.937 130.013 470.605 130.246 470.176C130.479 469.737 130.596 469.229 130.596 468.65Z" fill="#9E9E9E"/>
<path d="M55.24 542.27H55.11C50.67 542.27 48.53 540.52 48.16 536.6C48.12 536.19 48.42 535.82 48.84 535.78C49.24 535.74 49.62 536.05 49.66 536.46C49.95 539.6 51.43 540.77 55.12 540.77H55.25C59.32 540.77 60.76 539.33 60.76 535.26V528.74C60.76 524.67 59.32 523.23 55.25 523.23H55.12C51.41 523.23 49.93 524.42 49.66 527.62C49.61 528.03 49.26 528.34 48.84 528.3C48.42 528.27 48.12 527.9 48.15 527.49C48.49 523.51 50.64 521.73 55.11 521.73H55.24C60.15 521.73 62.25 523.83 62.25 528.74V535.26C62.25 540.17 60.15 542.27 55.24 542.27Z" fill="#9E9E9E"/>
<path d="M55.0001 532.75H43.6201C43.2101 532.75 42.8701 532.41 42.8701 532C42.8701 531.59 43.2101 531.25 43.6201 531.25H55.0001C55.4101 531.25 55.7501 531.59 55.7501 532C55.7501 532.41 55.4101 532.75 55.0001 532.75Z" fill="#9E9E9E"/>
<path d="M45.8499 536.1C45.6599 536.1 45.4699 536.03 45.3199 535.88L41.9699 532.53C41.6799 532.24 41.6799 531.76 41.9699 531.47L45.3199 528.12C45.6099 527.83 46.0899 527.83 46.3799 528.12C46.6699 528.41 46.6699 528.89 46.3799 529.18L43.5599 532L46.3799 534.82C46.6699 535.11 46.6699 535.59 46.3799 535.88C46.2399 536.03 46.0399 536.1 45.8499 536.1Z" fill="#9E9E9E"/>
<path d="M86.352 535.464H89.768V536.5H85.078V526.742H86.352V535.464ZM94.467 536.626C93.7483 536.626 93.095 536.463 92.507 536.136C91.9283 535.809 91.471 535.347 91.135 534.75C90.8083 534.143 90.645 533.443 90.645 532.65C90.645 531.866 90.813 531.175 91.149 530.578C91.4943 529.971 91.961 529.509 92.549 529.192C93.137 528.865 93.795 528.702 94.523 528.702C95.251 528.702 95.909 528.865 96.497 529.192C97.085 529.509 97.547 529.967 97.883 530.564C98.2283 531.161 98.401 531.857 98.401 532.65C98.401 533.443 98.2236 534.143 97.869 534.75C97.5236 535.347 97.0523 535.809 96.455 536.136C95.8576 536.463 95.195 536.626 94.467 536.626ZM94.467 535.506C94.9243 535.506 95.3536 535.399 95.755 535.184C96.1563 534.969 96.4783 534.647 96.721 534.218C96.973 533.789 97.099 533.266 97.099 532.65C97.099 532.034 96.9776 531.511 96.735 531.082C96.4923 530.653 96.175 530.335 95.783 530.13C95.391 529.915 94.9663 529.808 94.509 529.808C94.0423 529.808 93.613 529.915 93.221 530.13C92.8383 530.335 92.5303 530.653 92.297 531.082C92.0636 531.511 91.947 532.034 91.947 532.65C91.947 533.275 92.059 533.803 92.283 534.232C92.5163 534.661 92.8243 534.983 93.207 535.198C93.5896 535.403 94.0096 535.506 94.467 535.506ZM103.24 528.702C103.903 528.702 104.481 528.847 104.976 529.136C105.48 529.425 105.853 529.789 106.096 530.228V528.828H107.384V536.668C107.384 537.368 107.235 537.989 106.936 538.53C106.637 539.081 106.208 539.51 105.648 539.818C105.097 540.126 104.453 540.28 103.716 540.28C102.708 540.28 101.868 540.042 101.196 539.566C100.524 539.09 100.127 538.441 100.006 537.62H101.266C101.406 538.087 101.695 538.46 102.134 538.74C102.573 539.029 103.1 539.174 103.716 539.174C104.416 539.174 104.985 538.955 105.424 538.516C105.872 538.077 106.096 537.461 106.096 536.668V535.058C105.844 535.506 105.471 535.879 104.976 536.178C104.481 536.477 103.903 536.626 103.24 536.626C102.559 536.626 101.938 536.458 101.378 536.122C100.827 535.786 100.393 535.315 100.076 534.708C99.7587 534.101 99.6 533.411 99.6 532.636C99.6 531.852 99.7587 531.166 100.076 530.578C100.393 529.981 100.827 529.519 101.378 529.192C101.938 528.865 102.559 528.702 103.24 528.702ZM106.096 532.65C106.096 532.071 105.979 531.567 105.746 531.138C105.513 530.709 105.195 530.382 104.794 530.158C104.402 529.925 103.968 529.808 103.492 529.808C103.016 529.808 102.582 529.92 102.19 530.144C101.798 530.368 101.485 530.695 101.252 531.124C101.019 531.553 100.902 532.057 100.902 532.636C100.902 533.224 101.019 533.737 101.252 534.176C101.485 534.605 101.798 534.937 102.19 535.17C102.582 535.394 103.016 535.506 103.492 535.506C103.968 535.506 104.402 535.394 104.794 535.17C105.195 534.937 105.513 534.605 105.746 534.176C105.979 533.737 106.096 533.229 106.096 532.65ZM112.883 536.626C112.164 536.626 111.511 536.463 110.923 536.136C110.344 535.809 109.887 535.347 109.551 534.75C109.224 534.143 109.061 533.443 109.061 532.65C109.061 531.866 109.229 531.175 109.565 530.578C109.91 529.971 110.377 529.509 110.965 529.192C111.553 528.865 112.211 528.702 112.939 528.702C113.667 528.702 114.325 528.865 114.913 529.192C115.501 529.509 115.963 529.967 116.299 530.564C116.644 531.161 116.817 531.857 116.817 532.65C116.817 533.443 116.64 534.143 116.285 534.75C115.94 535.347 115.468 535.809 114.871 536.136C114.274 536.463 113.611 536.626 112.883 536.626ZM112.883 535.506C113.34 535.506 113.77 535.399 114.171 535.184C114.572 534.969 114.894 534.647 115.137 534.218C115.389 533.789 115.515 533.266 115.515 532.65C115.515 532.034 115.394 531.511 115.151 531.082C114.908 530.653 114.591 530.335 114.199 530.13C113.807 529.915 113.382 529.808 112.925 529.808C112.458 529.808 112.029 529.915 111.637 530.13C111.254 530.335 110.946 530.653 110.713 531.082C110.48 531.511 110.363 532.034 110.363 532.65C110.363 533.275 110.475 533.803 110.699 534.232C110.932 534.661 111.24 534.983 111.623 535.198C112.006 535.403 112.426 535.506 112.883 535.506ZM125.296 528.828V536.5H124.022V535.366C123.779 535.758 123.439 536.066 123 536.29C122.571 536.505 122.095 536.612 121.572 536.612C120.975 536.612 120.438 536.491 119.962 536.248C119.486 535.996 119.108 535.623 118.828 535.128C118.557 534.633 118.422 534.031 118.422 533.322V528.828H119.682V533.154C119.682 533.91 119.873 534.493 120.256 534.904C120.639 535.305 121.161 535.506 121.824 535.506C122.505 535.506 123.042 535.296 123.434 534.876C123.826 534.456 124.022 533.845 124.022 533.042V528.828H125.296ZM129.001 529.878V534.4C129.001 534.773 129.08 535.039 129.239 535.198C129.398 535.347 129.673 535.422 130.065 535.422H131.003V536.5H129.855C129.146 536.5 128.614 536.337 128.259 536.01C127.904 535.683 127.727 535.147 127.727 534.4V529.878H126.733V528.828H127.727V526.896H129.001V528.828H131.003V529.878H129.001Z" fill="#9E9E9E"/>
<path d="M103.803 50.0742H100.537C100.477 49.6516 100.355 49.2763 100.171 48.9482C99.9872 48.6151 99.7511 48.3317 99.4627 48.098C99.1744 47.8643 98.8413 47.6854 98.4634 47.5611C98.0906 47.4368 97.6854 47.3746 97.2479 47.3746C96.4574 47.3746 95.7688 47.571 95.1822 47.9638C94.5955 48.3516 94.1406 48.9183 93.8175 49.6641C93.4943 50.4048 93.3327 51.3047 93.3327 52.3636C93.3327 53.4524 93.4943 54.3672 93.8175 55.108C94.1456 55.8487 94.603 56.408 95.1896 56.7859C95.7763 57.1637 96.4549 57.3526 97.2255 57.3526C97.658 57.3526 98.0582 57.2955 98.4261 57.1811C98.799 57.0668 99.1296 56.9002 99.418 56.6815C99.7063 56.4577 99.945 56.1868 100.134 55.8686C100.328 55.5504 100.462 55.1875 100.537 54.7798L103.803 54.7947C103.718 55.4957 103.507 56.1719 103.169 56.8232C102.836 57.4695 102.386 58.0487 101.819 58.5607C101.257 59.0678 100.586 59.4705 99.8058 59.7688C99.0302 60.0621 98.1527 60.2088 97.1733 60.2088C95.8111 60.2088 94.593 59.9006 93.5192 59.2841C92.4503 58.6676 91.6051 57.7752 90.9837 56.6069C90.3672 55.4386 90.0589 54.0241 90.0589 52.3636C90.0589 50.6982 90.3722 49.2812 90.9986 48.1129C91.625 46.9446 92.4751 46.0547 93.549 45.4432C94.6229 44.8267 95.831 44.5185 97.1733 44.5185C98.0582 44.5185 98.8786 44.6428 99.6342 44.8913C100.395 45.1399 101.069 45.5028 101.655 45.9801C102.242 46.4524 102.719 47.0316 103.087 47.7177C103.46 48.4038 103.699 49.1893 103.803 50.0742ZM106.059 60V48.5455H109.139V50.544H109.258C109.467 49.8331 109.817 49.2962 110.309 48.9332C110.802 48.5653 111.368 48.3814 112.01 48.3814C112.169 48.3814 112.34 48.3913 112.524 48.4112C112.708 48.4311 112.87 48.4585 113.009 48.4933V51.3121C112.86 51.2674 112.654 51.2276 112.39 51.1928C112.127 51.158 111.885 51.1406 111.667 51.1406C111.199 51.1406 110.782 51.2425 110.414 51.4464C110.051 51.6452 109.763 51.9237 109.549 52.2816C109.34 52.6396 109.236 53.0522 109.236 53.5195V60H106.059ZM116.961 64.2955C116.559 64.2955 116.181 64.2631 115.828 64.1985C115.48 64.1388 115.192 64.0618 114.963 63.9673L115.679 61.5959C116.052 61.7102 116.387 61.7724 116.686 61.7823C116.989 61.7923 117.25 61.7227 117.469 61.5735C117.692 61.4244 117.874 61.1708 118.013 60.8129L118.199 60.3281L114.09 48.5455H117.431L119.803 56.9574H119.922L122.316 48.5455H125.679L121.227 61.2379C121.013 61.8544 120.722 62.3913 120.355 62.8487C119.992 63.3111 119.532 63.6665 118.975 63.9151C118.418 64.1687 117.747 64.2955 116.961 64.2955ZM127.305 64.2955V48.5455H130.437V50.4695H130.579C130.718 50.1612 130.919 49.848 131.183 49.5298C131.451 49.2067 131.799 48.9382 132.227 48.7244C132.659 48.5057 133.196 48.3963 133.838 48.3963C134.673 48.3963 135.443 48.6151 136.149 49.0526C136.855 49.4851 137.42 50.1388 137.842 51.0138C138.265 51.8839 138.476 52.9751 138.476 54.2876C138.476 55.5653 138.27 56.6442 137.857 57.5241C137.449 58.3991 136.893 59.0629 136.187 59.5153C135.486 59.9627 134.7 60.1864 133.83 60.1864C133.214 60.1864 132.689 60.0845 132.257 59.8807C131.829 59.6768 131.479 59.4208 131.205 59.1126C130.932 58.7994 130.723 58.4837 130.579 58.1655H130.482V64.2955H127.305ZM130.415 54.2727C130.415 54.9538 130.509 55.5479 130.698 56.055C130.887 56.5621 131.16 56.9574 131.518 57.2408C131.876 57.5192 132.311 57.6584 132.823 57.6584C133.34 57.6584 133.778 57.5167 134.136 57.2333C134.494 56.945 134.765 56.5472 134.949 56.0401C135.138 55.5281 135.232 54.9389 135.232 54.2727C135.232 53.6115 135.14 53.0298 134.956 52.5277C134.772 52.0256 134.501 51.6328 134.143 51.3494C133.785 51.0661 133.345 50.9244 132.823 50.9244C132.306 50.9244 131.869 51.0611 131.511 51.3345C131.158 51.608 130.887 51.9957 130.698 52.4979C130.509 53 130.415 53.5916 130.415 54.2727ZM146.687 48.5455V50.9318H139.789V48.5455H146.687ZM141.355 45.8011H144.531V56.4801C144.531 56.7734 144.576 57.0021 144.666 57.1662C144.755 57.3253 144.879 57.4371 145.039 57.5018C145.203 57.5664 145.392 57.5987 145.605 57.5987C145.754 57.5987 145.904 57.5863 146.053 57.5614C146.202 57.5316 146.316 57.5092 146.396 57.4943L146.895 59.8583C146.736 59.908 146.513 59.9652 146.224 60.0298C145.936 60.0994 145.585 60.1417 145.173 60.1566C144.407 60.1864 143.736 60.0845 143.159 59.8509C142.588 59.6172 142.143 59.2543 141.824 58.7621C141.506 58.2699 141.35 57.6484 141.355 56.8977V45.8011ZM151.843 44.7273L154.923 49.9325H155.043L158.137 44.7273H161.784L157.123 52.3636L161.888 60H158.175L155.043 54.7873H154.923L151.791 60H148.092L152.873 52.3636L148.182 44.7273H151.843Z" fill="#1A1A1A"/>
<g clip-path="url(#clip0_2301_472)">
<path d="M55.3431 42C53.3124 42 51.3649 42.8067 49.9289 44.2426L45.2426 48.9289C43.8067 50.3649 43 52.3124 43 54.3431C43 58.5719 46.4281 62 50.6569 62C52.6876 62 54.6351 61.1933 56.0711 59.7573L59.3126 56.5158C59.3126 56.5157 59.3127 56.5159 59.3126 56.5158L68.7573 47.0711C69.4431 46.3853 70.3733 46 71.3431 46C72.9669 46 74.3435 47.0583 74.8207 48.5227L77.8015 45.542C76.4417 43.4122 74.0573 42 71.3431 42C69.3124 42 67.3649 42.8067 65.9289 44.2426L53.2427 56.9289C52.5569 57.6147 51.6267 58 50.6569 58C48.6372 58 47 56.3628 47 54.3431C47 53.3733 47.3853 52.4431 48.0711 51.7573L52.7573 47.0711C53.4431 46.3853 54.3733 46 55.3431 46C56.9669 46 58.3435 47.0583 58.8207 48.5228L61.8015 45.542C60.4417 43.4123 58.0574 42 55.3431 42Z" fill="#6154F0"/>
<path d="M53.0439 56.9289C52.3581 57.6147 51.4279 58 50.4581 58C48.8345 58 47.4581 56.942 46.9807 55.4778L44 58.4585C45.3599 60.5879 47.7441 62 50.4581 62C52.4888 62 54.4363 61.1933 55.8723 59.7573L68.5585 47.0711C69.2443 46.3853 70.1745 46 71.1443 46C73.164 46 74.8012 47.6372 74.8012 49.6569C74.8012 50.6267 74.4159 51.5569 73.7301 52.2427L69.0439 56.9289C68.3581 57.6147 67.4279 58 66.4581 58C64.8344 58 63.4579 56.9418 62.9805 55.4775L59.9999 58.4582C61.3597 60.5879 63.7439 62 66.4581 62C68.4888 62 70.4363 61.1933 71.8723 59.7573L76.5585 55.0711C77.9945 53.6351 78.8012 51.6876 78.8012 49.6569C78.8012 45.4281 75.3731 42 71.1443 42C69.1136 42 67.1661 42.8067 65.7301 44.2426L53.0439 56.9289Z" fill="#6154F0"/>
</g>
<circle cx="230" cy="149" r="5" fill="#6154F0"/>
<defs>
<clipPath id="clip0_2301_472">
<rect width="36" height="20" fill="white" transform="translate(43 42)"/>
</clipPath>
</defs>
</svg>
